<?xml version="1.0" encoding="utf-8"?>
<!-- Generator: Adobe Illustrator 24.0.0, SVG Export Plug-In . SVG Version: 6.00 Build 0)  -->
<svg version="1.1" id="Layer_1" xmlns="http://www.w3.org/2000/svg" xmlns:xlink="http://www.w3.org/1999/xlink" x="0px" y="0px"
	 viewBox="0 0 240 240" style="enable-background:new 0 0 240 240;" xml:space="preserve">
<path d="M144.75,140.81c-0.28,7.84-2.65,14.47-7.56,19.63c-13.08,13.76-26.05,27.66-39.9,40.61
	c-21.65,20.24-57.06,11.64-67.61-19.74c-6.11-18.18-1.22-34.09,11.66-47.64c10.21-10.74,20.78-21.15,31.39-31.51
	c5.82-5.68,12.89-9.31,21.03-10.5c2.52-0.37,3.1-1.63,4.02-3.97c2.77-7,5.16-14.73,9.93-20.24c11.33-13.07,23.41-25.59,36.19-37.25
	c12.25-11.18,27.26-13.5,42.76-7.43c14.75,5.78,23.2,17.18,25.94,32.78c2.83,16.04-2.66,29.43-13.39,40.97
	c-8.84,9.51-18.13,18.62-26.93,28.16C164.75,132.86,156.15,138.95,144.75,140.81z M110.65,102.85c-0.37,0.51-0.73,1.03-1.1,1.54
	c2.35,11.08,8.48,19.35,19.44,23.04c10.75,3.61,21.16,2.54,29.58-5.92c11.04-11.09,21.76-22.5,32.65-33.73
	c5.64-5.81,8.6-12.81,9.84-20.74c1.92-12.25-4.48-25.93-15.11-31.8c-10.95-6.05-25.48-4.59-34.68,4.4
	c-11.78,11.52-23.14,23.48-34.43,35.49c-4.07,4.33-7.16,9.45-7.12,15.11c6.81,3.09,13.09,5.95,20.13,9.14
	c4.61-4.76,9.48-10.26,14.92-15.12c1.45-1.3,5.6-1.72,6.79-0.65c1.6,1.45,2.22,4.81,1.96,7.22c-0.19,1.82-2.28,3.55-3.76,5.09
	c-4.63,4.79-9.37,9.46-14.08,14.18c-4.41,4.42-6.42,4.44-11.66,0.9C119.69,108.08,115.11,105.55,110.65,102.85z M96.67,101.72
	c-4.99,2.66-10.37,4.28-14.06,7.72c-11.43,10.67-22.35,21.9-33.21,33.16c-6.65,6.89-11.34,15.15-10.59,24.97
	c1.06,13.86,7.33,24.91,20.89,30.12c12.98,4.99,24.06,0.71,33.47-8.72c10.82-10.84,21.69-21.64,32.16-32.81
	c2.96-3.15,4.74-7.46,6.8-11.38c1.35-2.57,0.32-4.04-2.57-5.05c-5.71-2-11.24-4.52-17.38-7.04c-4.83,4.82-10.38,10.31-15.89,15.84
	c-2.58,2.59-5.34,2.67-7.9,0.29c-2.54-2.36-2.67-5.27-0.53-8.03c1.32-1.7,2.84-3.26,4.4-4.76c4.27-4.13,8.61-8.19,12.53-11.92
	c-1.96-4.2-3.66-7.26-4.84-10.51C98.72,110.2,97.99,106.62,96.67,101.72z"/>
</svg>
