<?xml version="1.0" encoding="utf-8"?>
<!-- Generator: Adobe Illustrator 24.0.0, SVG Export Plug-In . SVG Version: 6.00 Build 0)  -->
<svg version="1.1" id="Layer_1" xmlns="http://www.w3.org/2000/svg" xmlns:xlink="http://www.w3.org/1999/xlink" x="0px" y="0px"
	 viewBox="0 0 240 240" style="enable-background:new 0 0 240 240;" xml:space="preserve">
<style type="text/css">
	.st0{fill:#FFFFFF;}
</style>
<path d="M154.11,145.32c2.91,2.83,5.64,5.5,8.37,8.15c6-4,7.18-3.79,12.21,1.29c11.94,12.08,23.99,24.06,35.94,36.14
	c7.01,7.08,7.48,17.11,0.91,23.05c-5.59,5.05-15.44,8.21-23.81-0.91c-10.92-11.9-22.39-23.29-33.71-34.81
	c-8-8.15-8.07-8.49-0.22-16.6c-2.54-2.72-5.07-5.45-7.58-8.14c-38.19,29.21-81.36,15.67-102.28-12.33
	C20.9,110.32,24.72,65.63,52.97,39.69c25.97-23.84,68.63-23.52,95.09,0.54C177.44,66.92,181.54,113.12,154.11,145.32z M100.28,33.89
	C67.52,33.7,40.65,61.12,40.3,95.09c-0.35,33.46,27.38,62.49,59.97,62.77c32.31,0.29,60.63-28.59,60.85-62.03
	C161.33,62.63,133.29,34.08,100.28,33.89z M162.24,169.35c11.77,12.13,22.9,23.58,34.01,35.05c2,2.07,4.17,3.79,6.79,1.15
	c2.73-2.76,0.42-4.83-1.44-6.71c-10.21-10.3-20.45-20.55-30.69-30.81c-1.12-1.12-2.32-2.17-3.1-2.9
	C165.84,166.61,164.26,167.82,162.24,169.35z"/>
<path class="st0" d="M100.28,33.89c33.01,0.19,61.05,28.74,60.84,61.93c-0.21,33.45-28.53,62.32-60.85,62.03
	c-32.58-0.29-60.32-29.32-59.97-62.77C40.65,61.12,67.52,33.7,100.28,33.89z"/>
<path class="st0" d="M162.24,169.35c2.02-1.53,3.61-2.73,5.57-4.22c0.78,0.73,1.98,1.78,3.1,2.9
	c10.24,10.26,20.49,20.51,30.69,30.81c1.86,1.88,4.17,3.95,1.44,6.71c-2.61,2.64-4.78,0.92-6.79-1.15
	C185.14,192.93,174.01,181.47,162.24,169.35z"/>
</svg>
