<?xml version="1.0" encoding="utf-8"?>
<!-- Generator: Adobe Illustrator 24.0.0, SVG Export Plug-In . SVG Version: 6.00 Build 0)  -->
<svg version="1.1" id="Layer_1" xmlns="http://www.w3.org/2000/svg" xmlns:xlink="http://www.w3.org/1999/xlink" x="0px" y="0px"
	 viewBox="0 0 240 240" style="enable-background:new 0 0 240 240;" xml:space="preserve">
<style type="text/css">
	.st0{fill:#FFFFFF;}
	.st1{fill:#C8C8C8;}
</style>
<path class="st0" d="M112.33,155.71l59.33,5.16V120l6-27.33l11.67-13c0,0,14.67-4,15.33-3C205.33,77.67,215,85,215,85l-1.47-17
	L194,51l-21.67-2.33l-23.67,12c0,0-21,30.67-21.33,32.33c-0.33,1.67-13.23,40-13.23,40L112.33,155.71z"/>
<polygon class="st1" points="68.33,160.88 112.33,155.71 119.43,109.33 104.33,79 77,53.33 49.33,48.67 23.33,70 21.67,84 
	42.33,76.67 59.33,84.67 65,107 67,148.33 "/>
<g>
	<path d="M118.95,101.01c3.27-8.66,6.95-16.61,11.52-23.93c7.95-12.74,17.67-22.77,30.27-28.49c7.91-3.58,16.07-5.02,24.42-4.05
		c10.77,1.24,20.17,6.23,27.61,15.94c5.83,7.6,9.31,16.54,10.76,26.66c0.27,1.87,2.41,4.11,2.59,6.26c0.15,1.84,1.1,2.89,2.64,3.76
		c5.28,2.97,8.47,7.36,9.43,13.27c1.39,8.55-4.12,17.24-12.67,19.91c-10.74,3.35-22.61-3.52-24.19-14.37
		c-1.13-7.75,1.33-14.6,9.06-18.98c0.86-0.49,1.64-1.12,2.48-1.7c-3.62-7.4-4.37-11.86-10.28-13.25c-5.98-1.41-11.1,0.83-15.53,5.59
		c-4.74,5.1-6.96,11.87-8.58,19.02c-3.1,13.73-3.73,27.71-3.08,41.83c0.14,3.15,0.46,6.28,0.57,9.43c0.04,1.17,0.34,1.85,1.19,2.46
		c3.11,2.25,5.29,5.41,6.02,9.78c0.18,1.06,0.28,2.15,0.29,3.23c0.03,4.57-0.02,9.15,0.02,13.72c0.03,3.71-1.42,6.27-4.04,8.06
		c-3.72,2.53-7.81,3.73-11.95,4.5c-6.49,1.19-13,2.24-19.53,2.97c-13.87,1.56-27.79,1.63-41.71,1.06
		c-4.72-0.19-9.45-0.35-14.17-0.73c-9.81-0.79-19.6-1.74-29.08-5.21c-2.31-0.84-4.52-1.95-6.27-4.03c-1.49-1.76-2.23-3.92-2.23-6.43
		c-0.01-4.25,0.11-8.5-0.03-12.74c-0.2-6.02,1.99-10.47,6.02-13.72c1.22-0.98,1.63-2.13,1.66-3.75c0.16-8.37,0.62-16.75,0.47-25.11
		c-0.21-11.99-1.81-23.76-5.99-34.78c-2.58-6.81-6.63-12.03-12.83-14.31c-7.79-2.86-15.96,0.98-19.65,9.18
		c-1.13,2.51,1.9,2.46,4.78,4.13c6.62,3.84,10.29,11.76,9.05,19.5c-1.26,7.83-7.32,14.28-14.87,15.81
		c-9.25,1.87-18.08-3.11-21.41-12.1c-3.29-8.88,0.06-18.59,8.3-23.23c2.26-1.28,3.93-2.4,4.09-4.44
		c1.03-13.46,5.29-25.14,13.7-34.36c5.78-6.34,12.66-10.22,20.35-11.89c15.46-3.37,29.48,1.14,42.2,11.76
		c12.81,10.71,21.56,25.38,28,42.2C118.51,99.84,118.67,100.26,118.95,101.01z M209.85,73.19c-5.84-10.71-14.26-16.43-24.7-17.89
		c-7.26-1.02-14.35,0.31-21.19,3.46c-11.5,5.3-20.22,14.73-27.24,26.57c-7.73,13.03-13.04,27.44-16.37,42.87
		c-1.42,6.59-2.42,13.3-3.55,19.98c-0.16,0.92-0.58,2.16,1.06,2.21c7.95,0.25,15.9,0.47,23.84,1c4.38,0.29,8.75,1.03,13.09,1.79
		c3.97,0.7,7.9,1.7,11.87,2.57c0-1.31,0.04-2.67-0.01-4.02c-0.4-10.28-0.49-20.54,0.58-30.79c0.77-7.43,1.96-14.74,3.9-21.85
		c2.41-8.84,6.09-16.7,12.6-22.21c5.79-4.91,12.22-6.93,19.27-5.62C205.29,71.69,207.53,72.52,209.85,73.19z M71.43,155.71
		c4.54-0.95,8.95-2.13,13.43-2.75c7.02-0.97,14.08-1.61,21.13-2.23c1.26-0.11,1.62-0.64,1.76-1.94c0.26-2.3,0.47-4.63,0.92-6.89
		c1.73-8.55,3.57-17.07,5.33-25.6c0.12-0.58,0.15-1.29-0.02-1.83c-5.46-17.42-13.02-33.19-25.24-45.18
		c-8.71-8.55-18.54-13.76-29.99-14.1c-8.88-0.26-16.94,2.42-23.89,9.19c-2.59,2.53-4.83,5.48-6.68,9.21
		c0.58-0.23,0.91-0.35,1.23-0.49c5.54-2.46,11.16-2.62,16.8-0.63c8.1,2.86,13.74,9.3,17.55,18.04c5.06,11.59,6.78,24.26,7.6,37.1
		c0.46,7.2,0.27,14.47,0.32,21.7C71.7,151.47,71.52,153.64,71.43,155.71z M117.59,193.36c7.35-0.28,15.04-0.35,22.7-0.94
		c7.28-0.56,14.54-1.48,21.78-2.59c3.83-0.59,7.57-1.93,11.35-2.95c0.92-0.25,1.29-0.9,1.24-2.11c-0.16-4.28-0.18-8.56-0.34-12.84
		c-0.02-0.56-0.46-1.33-0.88-1.59c-1.6-0.98-3.24-1.94-4.94-2.64c-7.4-3.01-15.07-4.47-22.83-5.24c-6.92-0.69-13.86-1.39-20.79-1.55
		c-7.27-0.17-14.54,0.22-21.81,0.52c-8.84,0.37-17.62,1.58-26.23,4.02c-4.01,1.14-7.88,3-11.8,4.6c-0.78,0.32-1.32,0.93-1.35,2.16
		c-0.08,3.13-0.4,6.25-0.45,9.38c-0.08,5.23-0.03,5.26,4.23,6.66c8.61,2.82,17.47,3.62,26.32,4.21
		C101.62,192.97,109.44,193.07,117.59,193.36z M219.54,118.87c3.4,0.02,6.27-2.57,6.29-5.67c0.02-3.15-2.81-5.89-6.1-5.9
		c-3.31-0.01-6.18,2.69-6.2,5.82C213.51,116.16,216.32,118.85,219.54,118.87z M19.21,118.92c3.58,0.01,6.17-2.53,6.15-6.04
		c-0.02-3.43-2.58-5.9-6.09-5.88c-3.48,0.02-6.05,2.55-6.05,5.95C13.22,116.45,15.69,118.91,19.21,118.92z"/>
	<path class="st0" d="M219.54,118.87c-3.22-0.02-6.03-2.7-6.01-5.74c0.02-3.14,2.89-5.84,6.2-5.82c3.29,0.01,6.12,2.75,6.1,5.9
		C225.81,116.3,222.94,118.88,219.54,118.87z"/>
	<path class="st0" d="M19.21,118.92c-3.52-0.01-5.99-2.47-5.99-5.97c0-3.4,2.58-5.93,6.05-5.95c3.51-0.02,6.07,2.45,6.09,5.88
		C25.39,116.39,22.8,118.93,19.21,118.92z"/>
</g>
</svg>
