<?xml version="1.0" encoding="utf-8"?>
<!-- Generator: Adobe Illustrator 24.0.0, SVG Export Plug-In . SVG Version: 6.00 Build 0)  -->
<svg version="1.1" id="Layer_1" xmlns="http://www.w3.org/2000/svg" xmlns:xlink="http://www.w3.org/1999/xlink" x="0px" y="0px"
	 viewBox="0 0 240 240" style="enable-background:new 0 0 240 240;" xml:space="preserve">
<style type="text/css">
	.st0{fill:#FFFFFF;}
	.st1{fill:#4D4D4D;}
</style>
<path d="M119.03,213.57c-27.14,0-54.29,0-81.43,0c-7.88,0-10.43-2.54-10.44-10.42c-0.02-8.83,0.03-17.65,0.02-26.48
	c-0.01-10.69,2.61-13.4,13.13-13.4c50.63-0.01,101.25,0,151.88,0c3.33,0,6.67-0.11,9.99,0.05c5.86,0.3,9.43,3.64,9.52,9.36
	c0.16,10.49,0.17,20.98-0.04,31.47c-0.13,6.6-3.39,9.41-10.18,9.42C173.99,213.57,146.51,213.57,119.03,213.57z M174.46,176.07
	c-31.22,0-61.94,0-92.85,0c0,8.63,0,16.9,0,25.5c31.08,0,61.94,0,92.85,0C174.46,192.98,174.46,184.71,174.46,176.07z M39.39,175.93
	c0,8.95,0,17.36,0,25.66c10.34,0,20.27,0,30.31,0c0-8.69,0-17.08,0-25.66C59.45,175.93,49.52,175.93,39.39,175.93z M186.23,201.68
	c4.7,0,8.97,0,13.38,0c0-8.72,0-17.23,0-25.66c-4.69,0-8.94,0-13.38,0C186.23,184.59,186.23,192.86,186.23,201.68z"/>
<path d="M183.39,62.88c-1.19,3.12-3.33,9.31-5.91,15.31c-1.62,3.79-4.07,7.23-5.83,10.97c-5.46,11.64-1.89,22.89,9.09,29.57
	c6.48,3.95,13.48,7.37,19.09,12.33c3.99,3.53,6.62,8.99,8.81,14.04c1.88,4.32-0.47,8.61-4.08,9.22c-4.41,0.75-6.09-2.05-7.1-5.84
	c-1.5-5.59-5.21-9.54-10.1-12.45c-4.85-2.88-9.83-5.56-14.54-8.65c-15.06-9.92-19.79-26.68-12.21-43.16
	c1.93-4.2,4.33-8.2,6.53-12.28c6.55-12.14,5.5-20.36-3.91-30.7c-2.35-2.58-5.22-4.92-6.77-7.92c-0.94-1.83-0.69-5.6,0.62-6.9
	c1.36-1.36,5.75-1.99,6.9-0.91C173.81,34.79,183.35,44.45,183.39,62.88z"/>
<path class="st0" d="M174.46,176.07c0,8.64,0,16.91,0,25.5c-30.91,0-61.77,0-92.85,0c0-8.6,0-16.87,0-25.5
	C112.52,176.07,143.24,176.07,174.46,176.07z"/>
<path class="st0" d="M39.39,175.93c10.13,0,20.06,0,30.31,0c0,8.57,0,16.97,0,25.66c-10.04,0-19.97,0-30.31,0
	C39.39,193.28,39.39,184.88,39.39,175.93z"/>
<path class="st1" d="M186.23,201.68c0-8.83,0-17.1,0-25.66c4.43,0,8.68,0,13.38,0c0,8.44,0,16.94,0,25.66
	C195.19,201.68,190.93,201.68,186.23,201.68z"/>
</svg>
