<?xml version="1.0" encoding="utf-8"?>
<!-- Generator: Adobe Illustrator 24.0.0, SVG Export Plug-In . SVG Version: 6.00 Build 0)  -->
<svg version="1.1" id="Layer_1" xmlns="http://www.w3.org/2000/svg" xmlns:xlink="http://www.w3.org/1999/xlink" x="0px" y="0px"
	 viewBox="0 0 240 240" style="enable-background:new 0 0 240 240;" xml:space="preserve">
<path d="M170.7,209.3c-7.4,0-14.8-2.3-22.1-6.7c-15.4-9.5-26.7-22.8-34.4-40.5c-7.8,8.3-15.2,14.2-23.3,18.5
	c-6.4,3.4-13.3,5.1-20.6,5.1c-1.2,0-2.4,0-3.6-0.1c-6.8-0.5-13.3-3-20.5-7.8C24.7,163.2,11,143,5.4,117.8
	c-1.4-6.5-2.2-13.5-2.2-20.7c0-4.1,0-8.2,0-12.2c0-11.1,0-22.5,0.1-33.8c0-2.5,0.6-5.1,1.6-7.4c1.8-4.1,5.3-6.5,9.6-6.5
	c1.2,0,2.5,0.2,3.8,0.6c1.5,0.4,3,0.9,4.5,1.3c5.5,1.6,11.2,3.3,16.8,4.5c6,1.3,12.2,1.9,17,2.3c5.1,0.4,10.5,0.6,16,0.6
	c0.9,0,1.7,0,2.6,0c2.9,0,5.7-0.3,8.7-0.6c1.7-0.2,3.5-0.4,5.3-0.5c6.4-0.4,12.9-1.5,19.8-3.4c4.8-1.3,9.6-2.8,14.1-4.3
	c1.2-0.4,2.4-0.6,3.7-0.6c6.7,0,12,5.4,12.1,12.4c0.1,4.6,0.1,9.1,0,13.9c0,1.3,0,2.6,0,4c0.4,0.1,0.9,0.2,1.3,0.2
	c2.7,0.5,5.2,1,7.8,1.4c7.6,1.2,15.5,1.8,23.7,1.8c1.3,0,2.6,0,4,0c16.5-0.4,29.5-2.5,40.9-6.6c1.6-0.6,3.8-1.3,6.1-1.5
	c0.4,0,0.8-0.1,1.2-0.1c5.9,0,10.9,4.3,11.8,10.3c0.2,1.4,0.3,2.8,0.3,4.4l0,9.9c0,10.8,0.1,21.9,0,32.8
	c-0.1,13.6-1.8,24.5-5.3,34.1c-6,16.5-15.3,30.3-27.7,41c-7.7,6.7-14.8,10.8-22.3,12.8C177.5,208.8,174.1,209.3,170.7,209.3z
	 M122.4,151.8c2.2,6,4.7,11.3,7.6,15.9c7.7,12.4,16.8,21,27.8,26.4c4.8,2.4,9.1,3.5,13.3,3.5c0.2,0,0.4,0,0.6,0
	c4.2-0.1,8.5-1.3,12.8-3.7c7.9-4.2,14.9-10.2,20.9-17.8c12.9-16.4,19.4-35.3,19.3-56.2c0-9.3,0-18.7,0-27.8c0-5.1,0-10.1,0-15.2
	c0-0.4,0-1-0.1-1.5c-0.2-0.8-0.4-1.1-0.4-1.2c0,0,0,0-0.1,0c-0.2,0-0.5,0-1.2,0.3l-0.4,0.1c-0.3,0.1-0.7,0.3-1,0.4
	c-13.2,4.5-27.7,6.9-44.2,7.3c-0.9,0-1.9,0-2.8,0c-5.2,0-10.4-0.3-15.5-0.6c-1.6-0.1-3.2-0.2-4.8-0.3c-3.3-0.2-6.4-0.6-9.9-1.2
	c-1.7-0.3-3.5-0.6-5.2-1l0,0.5c0,2.9,0,5.8,0,8.7c0,7,0,14.4-1,21.9c-0.5,5.3-2.4,12-2.4,12S128.5,142.6,122.4,151.8z M15,49.3
	c-0.2,0.7-0.2,1.6-0.2,2.2c0,6.5,0,13.1,0,19.6c0,7.8,0,15.6,0,23.3c0,7.3,0.5,13.6,1.6,19.3c2.1,10.8,6.1,20.7,11.9,29.6
	c7.3,11.1,16.1,19.6,26.9,25.9c5.2,3.1,10.5,4.6,15.7,4.6c5.2,0,10.6-1.6,16-4.6c5.5-3.2,10.7-7.1,15.4-11.7
	c15.7-15.5,24.2-35.2,25.2-58.4c0.2-5.3,0.2-10.7,0.1-16c0-2.5-0.1-4.9-0.1-7.4v-2.9h0.2l0-2.6c0-4.8,0-9.7,0-14.5
	c0-2,0-3.8-0.2-5.7c-0.1-1.1-0.5-1.1-0.8-1.1c-0.2,0-0.5,0-0.8,0.1l-2.5,0.8c-3.3,1-6.7,2.1-10.2,3c-12.1,3.2-21.5,4.7-30.5,5
	c-2.7,0.1-5.6,0.1-9.3,0.1c-1.6,0-3.1,0-4.7,0c-1.5,0-3.1,0-4.6,0c-0.9,0-3.2,0-3.2,0c-9.9,0-19.6-1.9-28-3.7
	c-4.3-0.9-8.5-2.2-12.6-3.5C18.6,50.4,16.8,49.9,15,49.3C15.1,49.4,15,49.4,15,49.3z"/>
<path d="M136.1,69.8c3.9,0.7,7.7,1.4,11.5,2.1c9.4,1.5,18.8,2,28.2,1.8c14.3-0.3,28.3-1.9,41.9-6.8c1.7-0.6,3.6-1.2,5.4-1.4
	c4.9-0.5,9.1,2.9,9.8,7.8c0.2,1.3,0.3,2.6,0.3,3.9c0,14.2,0.1,28.4,0,42.6c-0.1,11.3-1.2,22.5-5.1,33.2c-5.6,15.5-14.4,29-26.9,39.8
	c-6.2,5.4-13.1,10-21.2,12.2c-10.7,2.9-20.7,0.7-29.9-5c-16.7-10.3-27.9-25-34.9-43.4c-0.4,0.4-0.7,0.8-1.1,1.2
	c-7.2,7.9-15,15-24.5,20c-7.1,3.8-14.7,5.3-22.6,4.7c-7.1-0.5-13.3-3.4-19.1-7.3c-20.9-14.1-34.2-33.4-39.6-58.1
	c-1.5-6.6-2.1-13.3-2.1-20.1c0-15.3-0.1-30.7,0.1-46c0-2.1,0.5-4.3,1.3-6.3c1.8-4.2,5.6-5.6,10-4.3c7.1,2.1,14.2,4.3,21.5,5.9
	c5.7,1.2,11.5,1.9,17.3,2.3c6.3,0.5,12.6,0.7,18.9,0.6c4.7-0.1,9.5-0.8,14.2-1.1c6.9-0.5,13.7-1.7,20.4-3.4
	c4.8-1.3,9.5-2.8,14.3-4.3c5.6-1.8,11.9,2.2,12,9.1C136.2,56.2,136.1,62.8,136.1,69.8z M130.3,75.8c0.1,0,0.1,0,0.2,0
	c0-6.7,0-13.4,0-20c0-2,0-3.9-0.2-5.9c-0.3-3-2.5-4.4-5.3-3.5c-4.2,1.3-8.3,2.7-12.5,3.8c-9.8,2.6-19.7,4.6-29.9,4.9
	c-7.1,0.2-14.1,0.1-21.2,0.1c-9.4,0.1-18.7-1.7-27.8-3.6c-6-1.3-11.8-3.3-17.7-5c-1.8-0.5-3,0-3.6,1.7c-0.3,1-0.4,2.2-0.4,3.3
	c0,14.3,0,28.6,0,42.9c0,6.7,0.4,13.3,1.7,19.9c2.1,11,6.1,21.2,12.3,30.6c7.3,11.1,16.4,20.1,27.9,26.8c11.5,6.8,23,6.6,34.5,0
	c5.9-3.4,11.2-7.5,16-12.2c16.8-16.6,25-37,26-60.4C130.6,91.5,130.3,83.6,130.3,75.8z M136.2,75.9c0,4.3,0,8.5,0,12.8
	c0,7.6-0.1,15.2-1.2,22.7c-0.1,0.4,0.3,1.2,0.7,1.4c1.9,0.8,3.8,1.6,5.8,2c5.3,1.1,11.1-2.1,13.2-7c0.8-1.8,1.9-2.4,3.4-1.8
	c1.4,0.5,2.3,2.2,1.8,3.7c-0.9,2.9-2.3,5.5-4.7,7.2c-6.2,4.6-13,5.6-20.2,2.4c-0.5-0.2-1-0.4-1.5-0.6c-0.1,0.5-0.1,0.9-0.2,1.2
	c-2.6,11-7.2,21.1-13.4,30.5c-0.5,0.8-0.6,1.4-0.3,2.3c2.1,5.8,4.6,11.4,7.9,16.6c7.3,11.6,16.4,21.3,28.9,27.5
	c4.8,2.4,9.8,3.9,15.2,3.8c5-0.1,9.7-1.7,14.1-4c8.6-4.6,15.8-10.9,21.8-18.5c13.4-17,20-36.3,19.9-58c-0.1-14.3,0-28.6,0-42.9
	c0-0.7,0-1.4-0.2-2.1c-0.7-3.2-2.5-4.1-5.6-2.9c-0.4,0.2-0.8,0.3-1.3,0.5c-14,4.8-28.6,6.8-43.3,7.2c-7.6,0.2-15.2-0.5-22.9-0.9
	c-3.2-0.2-6.4-0.7-9.6-1.2C141.8,77.2,139.1,76.5,136.2,75.9z"/>
<path d="M71.9,144.4c-13,0.3-22.4-5.6-29.4-15.9c-0.6-0.9-1.1-1.9-1.4-3c-0.6-1.6,0.1-3.2,1.5-3.8c1.5-0.7,2.8-0.2,3.8,1.5
	c3.1,5.7,7.6,9.9,13.6,12.5c14.2,6,28.1,1,35.9-12.2c1.3-2.3,3.8-2.6,5.3-0.6c0.7,1,0.7,2.1,0.1,3.1c-5.9,10.1-14.1,16.9-26,18.5
	C74,144.5,72.8,144.4,71.9,144.4z"/>
<path d="M98,81.8c6.8,0,11.7,2.4,15.2,7.4c0.5,0.7,0.9,1.5,1.2,2.3c0.5,1.5-0.1,3.1-1.5,3.7c-1.4,0.6-2.8,0.2-3.6-1.3
	c-1.6-3.1-4.1-5.2-7.5-5.8c-5.4-1-10.9,0.3-14.2,5.6c-0.7,1.2-1.8,1.8-3.2,1.5c-1.2-0.2-2.1-1-2.2-2.2c-0.1-0.9,0.2-1.9,0.7-2.7
	C86.6,84.6,91.9,81.8,98,81.8z"/>
<path d="M45.8,81.9c4.7,0.2,9.9,3.1,13.2,9c1,1.8,0.6,3.2-0.8,4.1c-1.6,1.1-3.1,0.6-4.4-1.4c-1.6-2.8-4.1-4.4-7.1-5.3
	c-4.8-1.3-10,0.6-12.9,4.7c-0.1,0.1-0.2,0.2-0.3,0.4c-1.4,2.2-2.8,2.7-4.3,1.7c-1.5-1-1.7-2.9-0.6-4.9
	C31.7,85.2,37.7,81.9,45.8,81.9z"/>
<path d="M198.7,164c0,2-0.8,3-2.2,3.4c-1.3,0.3-2.4-0.4-3.3-1.8c-1.6-2.5-3.1-5.1-5.1-7.2c-5.2-5.4-11.8-7.2-19.2-6.7
	c-5.4,0.4-10.3,2-14.5,5.6c-2.6,2.2-4.5,4.9-5.8,8c-0.9,2.1-2.3,2.7-4,2c-1.7-0.7-2.3-2.5-1.3-4.6c3.8-8.1,9.7-13.9,18.6-16.1
	c8.5-2.2,16.7-1.5,24.5,2.7c5.6,3,9.1,7.8,12,13.3C198.6,163,198.6,163.7,198.7,164z"/>
<path d="M200,121.1c-9.2,0-13.9-4.2-17.3-10.2c-0.2-0.4-0.4-0.8-0.5-1.3c-0.4-1.8,0.3-3.1,1.7-3.6c1.6-0.6,3-0.1,3.8,1.7
	c2.3,4.8,6.1,7.5,11.5,7.3c3.5-0.1,6.2-1.7,8.1-4.6c1.6-2.4,3.2-3.1,4.9-1.9c1.6,1.1,1.7,2.9,0.1,5.2
	C209,118.7,204.3,121.3,200,121.1z"/>
</svg>
