<?xml version="1.0" encoding="utf-8"?>
<!-- Generator: Adobe Illustrator 24.0.0, SVG Export Plug-In . SVG Version: 6.00 Build 0)  -->
<svg version="1.1" id="Layer_1" xmlns="http://www.w3.org/2000/svg" xmlns:xlink="http://www.w3.org/1999/xlink" x="0px" y="0px"
	 viewBox="0 0 240 240" style="enable-background:new 0 0 240 240;" xml:space="preserve">
<style type="text/css">
	.st0{fill:#FFFFFF;}
	.st1{fill:#A0A0A0;}
</style>
<path d="M196.89,215.97c2.44,5.26,4.62,9.86,6.7,14.51c1.44,3.22,2.22,6.56-1.81,8.47c-4.15,1.96-6.61-0.48-8.29-3.95
	c-2.51-5.21-5.03-10.43-7.29-15.74c-1.04-2.45-2.32-3.38-5.12-3.38c-40.85,0.11-81.7,0.03-122.55,0.2
	c-1.59,0.01-3.84,1.59-4.64,3.06c-2.85,5.21-5.18,10.71-7.75,16.08c-1.55,3.23-3.54,5.94-7.69,4.01c-4.11-1.91-4.11-5.15-2.4-8.77
	c2.17-4.62,4.31-9.24,6.77-14.49c-4.79,0-9.03,0.01-13.28,0c-10.19-0.04-16.52-6.29-16.52-16.38c-0.01-46.18-0.01-92.36,0-138.55
	c0-9.26,6.23-15.48,15.67-15.5c21.01-0.05,42.02-0.02,63.03-0.01c1.16,0,2.33,0,4.27,0c-1.11-1.36-1.79-2.32-2.61-3.16
	C83.21,32.04,73.04,21.75,62.87,11.44c-3.24-3.29-3.84-7.18-1.47-9.56c2.49-2.52,6.27-2.02,9.62,1.39
	c12.96,13.17,25.87,26.37,38.82,39.54c3.91,3.98,15.49,4.03,19.41,0.03c12.24-12.47,24.42-24.99,36.65-37.47
	c1.28-1.31,2.59-2.6,4.01-3.74c2.54-2.02,5.76-2.41,7.47,0.25c1.26,1.95,1.05,5.15,0.69,7.7c-0.19,1.36-2,2.54-3.19,3.69
	c-10.62,10.23-21.27,20.42-31.91,30.64c0.35,0.55,0.71,1.1,1.06,1.64c1.58,0,3.16,0,4.73,0c20.51,0,41.02-0.02,61.53,0.01
	c10.37,0.01,16.85,6.32,16.86,16.65c0.05,45.35,0.06,90.71,0.01,136.06c-0.01,11.53-6.44,17.74-17.92,17.73
	C205.4,215.97,201.57,215.97,196.89,215.97z M119.27,203.61c28.67,0,57.35,0,86.03,0c8.54,0,10.3-1.59,10.3-9.58
	c0.02-41.7,0.04-83.39,0.01-125.09c-0.01-9.01-2.16-11.27-11.16-11.28C147.6,57.59,90.74,57.58,33.89,57.6
	c-7.39,0-9.08,1.82-9.08,9.16c0,42.86,0.01,85.71,0.03,128.58c0,7.16,1.2,8.27,8.4,8.26C61.92,203.59,90.59,203.6,119.27,203.61z"/>
<path class="st0" d="M119.27,203.61c-28.67-0.01-57.35-0.02-86.03,0c-7.2,0-8.4-1.12-8.4-8.26c-0.02-42.86-0.03-85.71-0.03-128.58
	c0-7.34,1.69-9.16,9.08-9.16c56.85-0.02,113.71-0.01,170.56,0.06c9,0.01,11.15,2.28,11.16,11.28c0.03,41.7,0.01,83.39-0.01,125.09
	c0,7.98-1.76,9.58-10.3,9.58C176.63,203.61,147.95,203.61,119.27,203.61z M112.2,74.43c-18.16,0-36.33,0.43-54.46-0.17
	c-10.45-0.35-18.76,6.42-18.48,18.85c0.45,19.91,0.16,39.83,0.21,59.75c0.02,6.64-0.29,13.3,0.25,19.9c0.75,9.25,7.73,15.29,17,15.3
	c36.48,0.02,72.96,0.03,109.44-0.01c10.17-0.01,17.18-6.86,17.47-17.06c0.12-4.15-0.03-8.29-0.03-12.45
	c-0.02-22.41,0.04-44.81-0.07-67.21c-0.06-11.18-5.88-16.9-16.85-16.91C148.52,74.42,130.36,74.43,112.2,74.43z M206.15,91.83
	c-0.17-3.87-2.41-5.98-6.18-6.38c-3.47-0.37-6.85,2.95-6.88,6.41c-0.03,3.5,3.22,6.71,6.82,6.45
	C203.75,98.03,205.94,95.91,206.15,91.83z M206.07,132.4c0.01-3.69-2.9-6.58-6.63-6.39c-3.88,0.2-6.23,2.38-6.28,6.22
	c-0.06,3.85,2.35,6.1,6.11,6.45C202.9,139.01,206.06,135.92,206.07,132.4z"/>
<path d="M112.2,74.43c18.16,0,36.32-0.01,54.47,0c10.97,0.01,16.8,5.72,16.85,16.91c0.11,22.41,0.05,44.81,0.07,67.21
	c0,4.15,0.15,8.3,0.03,12.45c-0.3,10.2-7.29,17.05-17.47,17.06c-36.48,0.03-72.96,0.03-109.44,0.01c-9.26-0.01-16.25-6.04-17-15.3
	c-0.53-6.6-0.23-13.27-0.25-19.9c-0.05-19.92,0.24-39.84-0.21-59.75c-0.28-12.43,8.02-19.2,18.48-18.85
	C75.87,74.87,94.04,74.43,112.2,74.43z M171.83,111.56c-2.34,0-4.46,0-6.58,0c-10.33-0.02-20.68,0.01-31.01-0.07
	c-3.77-0.03-6.1-2.26-6.03-5.84c0.07-3.43,2.6-5.17,6.07-5.29c1.5-0.05,3-0.01,4.5-0.01c10.95,0,21.91,0,32.8,0
	c1.48-14.2,0.53-15.04-12.33-14.96c-32.17,0.2-64.36,0.07-96.53,0.06c-10.71,0-11.95,1.27-11.65,12.08c0.02,0.79,0.1,1.57,0.18,2.82
	c1.73,0,3.19,0,4.64,0c9.83,0,19.68,0,29.51,0.01c3.74,0,6.3,1.89,6.29,5.54c-0.02,3.57-2.4,5.67-6.23,5.64
	c-1.67-0.01-3.33,0.01-5,0.02c-9.62,0-19.26,0-29.13,0c0,5.48,0,10.36,0,15.32c40.36,0,80.41,0,120.5,0
	C171.83,121.76,171.83,116.99,171.83,111.56z M51.22,152.19c2.14,0,3.94,0,5.73,0c19.83,0,39.65,0.02,59.48-0.03
	c4.02-0.01,7.59,0.55,7.63,5.57c0.03,5.08-3.62,5.61-7.6,5.6c-18.66-0.03-37.32-0.02-55.97-0.02c-2.96,0-5.92,0-8.77,0
	c-2.12,11.22-0.35,13.44,10.06,13.43c32.31-0.02,64.64-0.01,96.95-0.01c2.66,0,5.34,0.09,7.99-0.12c3.24-0.26,5.19-2.08,5.31-5.44
	c0.09-2.44,0.02-4.88,0.02-7.85c-2.14,0-3.76,0-5.38,0c-7.83,0.01-15.66-0.08-23.49,0.06c-4.15,0.07-7.42-0.99-7.94-5.56
	c-0.39-3.5,2.74-5.6,7.71-5.63c1.5-0.01,3,0,4.5,0c8.09,0,16.2,0,24.32,0c0-4.89,0-9.13,0-13.53c-40.32,0-80.34,0-120.54,0
	C51.22,143.12,51.22,147.24,51.22,152.19z"/>
<path d="M206.15,91.83c-0.2,4.08-2.4,6.2-6.24,6.48c-3.61,0.26-6.86-2.95-6.82-6.45c0.03-3.46,3.42-6.78,6.88-6.41
	C203.73,85.85,205.98,87.97,206.15,91.83z"/>
<path d="M206.07,132.4c-0.01,3.51-3.17,6.61-6.8,6.27c-3.77-0.35-6.17-2.6-6.11-6.45c0.06-3.84,2.4-6.02,6.28-6.22
	C203.17,125.82,206.08,128.71,206.07,132.4z"/>
<path class="st1" d="M171.83,111.56c0,5.43,0,10.2,0,15.31c-40.08,0-80.14,0-120.5,0c0-4.96,0-9.84,0-15.32c9.87,0,19.5,0,29.13,0
	c1.67,0,3.33-0.03,5-0.02c3.83,0.03,6.21-2.07,6.23-5.64c0.02-3.65-2.55-5.53-6.29-5.54c-9.83,0-19.68-0.01-29.51-0.01
	c-1.46,0-2.91,0-4.64,0c-0.08-1.25-0.16-2.03-0.18-2.82c-0.3-10.82,0.93-12.08,11.65-12.08c32.17,0,64.36,0.14,96.53-0.06
	c12.86-0.08,13.81,0.76,12.33,14.96c-10.89,0-21.85,0-32.8,0c-1.5,0-3-0.04-4.5,0.01c-3.47,0.11-6,1.86-6.07,5.29
	c-0.07,3.58,2.25,5.81,6.03,5.84c10.33,0.08,20.67,0.06,31.01,0.07C167.36,111.56,169.48,111.56,171.83,111.56z M110.65,100.26
	c-4,0.18-5.82,2.28-5.79,5.73c0.04,3.33,2.2,5.2,5.42,5.23c3.42,0.03,5.71-1.84,5.69-5.42
	C115.96,102.31,113.84,100.48,110.65,100.26z"/>
<path class="st1" d="M51.22,152.19c0-4.94,0-9.06,0-13.53c40.21,0,80.23,0,120.54,0c0,4.4,0,8.63,0,13.53c-8.12,0-16.22,0-24.32,0
	c-1.5,0-3-0.01-4.5,0c-4.97,0.03-8.1,2.14-7.71,5.63c0.52,4.58,3.79,5.63,7.94,5.56c7.82-0.14,15.66-0.05,23.49-0.06
	c1.62,0,3.24,0,5.38,0c0,2.97,0.07,5.41-0.02,7.85c-0.12,3.36-2.07,5.17-5.31,5.44c-2.65,0.21-5.32,0.12-7.99,0.12
	c-32.31,0.01-64.64-0.01-96.95,0.01c-10.41,0.01-12.19-2.2-10.06-13.43c2.86,0,5.82,0,8.77,0c18.66,0,37.32-0.01,55.97,0.02
	c3.98,0.01,7.63-0.52,7.6-5.6c-0.03-5.02-3.61-5.58-7.63-5.57c-19.83,0.05-39.65,0.02-59.48,0.03
	C55.17,152.19,53.36,152.19,51.22,152.19z"/>
<path d="M110.65,100.26c3.19,0.22,5.31,2.03,5.33,5.54c0.02,3.58-2.27,5.45-5.69,5.42c-3.22-0.03-5.38-1.9-5.42-5.23
	C104.83,102.55,106.65,100.44,110.65,100.26z"/>
</svg>
