<?xml version="1.0" encoding="utf-8"?>
<!-- Generator: Adobe Illustrator 24.0.0, SVG Export Plug-In . SVG Version: 6.00 Build 0)  -->
<svg version="1.1" id="Layer_1" xmlns="http://www.w3.org/2000/svg" xmlns:xlink="http://www.w3.org/1999/xlink" x="0px" y="0px"
	 viewBox="0 0 240 240" style="enable-background:new 0 0 240 240;" xml:space="preserve">
<style type="text/css">
	.st0{fill:#FFFFFF;}
</style>
<g>
	<path d="M26.7,45.9c0-3.4,0-6.5,0-9.7c0-4.9,2.2-7.4,7.1-7.8c5.5-0.4,10.9-0.9,16.4-0.8c19.2,0.2,37.9,3.1,55.6,10.9
		c4.7,2.1,9.3,4.7,13.8,7.1c0.8,0.4,1.4,0.5,2.2,0c13.5-8.1,28.1-13.1,43.6-15.8c11.7-2.1,23.4-2.5,35.2-2c2.9,0.1,5.7,0.4,8.5,0.8
		c3.8,0.5,5.8,3,5.9,6.8c0,3.4,0,6.8,0,10.4c2.1,0,4.1,0,6.2,0c8.9,0,15.4,6.4,15.4,15.3c0,41.8,0,83.6,0,125.4
		c0,7.2-6.5,14-13.9,14.1c-16.9,0-33.8,0-50.6,0c-8.6,0-17.2,0.1-25.8,0.1c-1,0-1.7,0.3-2.4,1.2c-4.9,6.2-11.4,9.6-19.1,10.7
		c-10.3,1.4-19.2-1.6-26.2-9.4c-1.9-2.1-3.7-2.6-6.2-2.6c-24.3,0-48.5,0-72.8,0c-8.1,0-14.5-6.5-14.5-14.6c0-41.5,0-83.1,0-124.6
		c0-6.7,4.2-12.9,10.2-14.7c1.7-0.5,3.6-0.7,5.4-0.8C22.6,45.8,24.6,45.9,26.7,45.9z M36.8,37.6c0,42.7,0,84.8,0,127
		c27.8-2.9,54.1,2.1,79.1,14.7c0-0.4,0-0.7,0-1c0-40.7,0-81.3,0-122c0-1.1-0.5-1.5-1.3-2C97.5,44,78.7,38.8,58.8,37.6
		C51.5,37.2,44.2,37.6,36.8,37.6z M125.7,179.4c25-13.1,51.4-17.6,79.2-14.8c0-42.3,0-84.4,0-126.6c-1.4-0.1-2.6-0.4-3.9-0.4
		c-11.5-0.3-23-0.1-34.5,2c-13.9,2.6-27,7.3-39.3,14.5c-1.2,0.7-1.5,1.4-1.5,2.8c0,40.2,0,80.3,0,120.5
		C125.7,178,125.7,178.6,125.7,179.4z M26.8,55.7c-1.7,0-3.2,0-4.8,0c-0.7,0-1.4-0.1-2.1,0.1c-3.3,0.6-4.7,1.7-4.7,5.3
		c0.1,38.3,0,76.6,0,115c0,3.2,0,6.4-0.1,9.7c0,2,0.8,3.5,2.5,4.4c1,0.5,2.2,0.7,3.4,0.7c25.2,0,50.4,0.1,75.7,0
		c3.9,0,6.9,1,8.6,4.7c0.1,0.2,0.2,0.3,0.4,0.5c3.7,4.2,8.3,6.7,14,6.9c7.4,0.2,13.2-2.5,17.5-8.7c0.8-1.2,2.2-2.2,3.5-2.8
		c1.2-0.5,2.7-0.5,4-0.5c25.6,0,51.2,0,76.7,0c3.4,0,5.4-1.9,5.4-5.4c-0.1-4.8-0.2-9.5-0.2-14.3c0-36.9,0-73.9-0.1-110.8
		c0-2.3-1-3.9-3.1-4.2c-2.7-0.4-5.4-0.4-8.3-0.6c0,0.9,0,1.4,0,1.9c0,36.9,0,73.8,0,110.7c0,0.6,0,1.2,0,1.8
		c-0.3,3.5-3.4,5.8-6.9,5.1c-2.3-0.5-4.7-1-7.1-1.1c-8.9-0.6-17.9-0.6-26.8,0.5c-9.9,1.2-19.5,3.6-28.8,7c-7.1,2.6-14,5.9-20.5,9.8
		c-2.7,1.6-5.2,1.8-7.9,0.2c-2.1-1.2-4.2-2.4-6.4-3.6c-14.6-7.5-30.1-12-46.5-13.7c-7.7-0.8-15.4-0.7-23.1-0.2
		c-2.5,0.2-4.9,0.7-7.3,1.2c-3.8,0.8-6.8-1.4-7-5.2c-0.1-1-0.1-2-0.1-3.1c0-33.6,0.1-67.2,0.1-100.8C26.8,62.7,26.8,59.2,26.8,55.7z
		"/>
	<path class="st0" d="M36.8,37.6c7.4,0,14.8-0.4,22,0.1c19.9,1.2,38.7,6.3,55.9,16.7c0.8,0.5,1.3,0.9,1.3,2c0,40.7,0,81.3,0,122
		c0,0.3,0,0.5,0,1c-25-12.6-51.3-17.5-79.1-14.7C36.8,122.4,36.8,80.2,36.8,37.6z"/>
	<path class="st0" d="M125.7,179.4c0-0.8,0-1.4,0-2c0-40.2,0-80.3,0-120.5c0-1.3,0.4-2.1,1.5-2.8c12.2-7.2,25.3-11.9,39.3-14.5
		c11.4-2.1,22.9-2.3,34.5-2c1.3,0,2.5,0.2,3.9,0.4c0,42.2,0,84.3,0,126.6C177.1,161.8,150.8,166.3,125.7,179.4z M158.6,120
		c0,1.4,0,2.9,0,4.3c0.1,2.8,2.1,4.7,4.9,4.7c2.9,0,4.9-1.9,4.9-4.7c0-2.3,0.1-4.5,0-6.8c-0.1-1.7,0.5-3.2,1.7-4.4
		c2.2-2.3,4.5-4.5,6.8-6.6c6.4-6,9.8-13.1,8.2-22.1c-2.2-12.2-14.3-20.6-26.4-17.9c-9.5,2.1-18.5,11.4-18.1,22.1
		c0.1,3,1.9,4.8,4.9,4.8c3,0,4.8-1.8,4.9-4.8c0-1.3,0.1-2.6,0.5-3.8c1.8-5.7,6.3-8.6,12.9-8.6c4.9,0,8.2,2.7,10.5,6.8
		c2.2,4,2.2,8.2-0.5,12c-1.2,1.7-2.7,3.1-4.2,4.6c-2.3,2.3-4.8,4.3-6.9,6.7C159.2,110.2,158,114.9,158.6,120z M158.6,143.9
		c0,2.9,2.2,5.2,4.9,5.1c2.9,0,5-2.1,5-5c0-3.1-2-5.1-5.2-5.1C160.5,138.9,158.6,140.9,158.6,143.9z"/>
	<path class="st0" d="M26.8,55.7c0,3.6,0,7,0,10.4c0,33.6-0.1,67.2-0.1,100.8c0,1,0,2,0.1,3.1c0.2,3.8,3.2,6,7,5.2
		c2.4-0.5,4.9-1,7.3-1.2c7.7-0.5,15.4-0.6,23.1,0.2c16.4,1.7,31.9,6.2,46.5,13.7c2.2,1.1,4.3,2.3,6.4,3.6c2.7,1.6,5.2,1.4,7.9-0.2
		c6.5-3.9,13.3-7.2,20.5-9.8c9.3-3.4,18.9-5.7,28.8-7c8.9-1.1,17.8-1.1,26.8-0.5c2.4,0.2,4.7,0.6,7.1,1.1c3.5,0.7,6.6-1.6,6.9-5.1
		c0-0.6,0-1.2,0-1.8c0-36.9,0-73.8,0-110.7c0-0.5,0-1,0-1.9c2.8,0.2,5.6,0.2,8.3,0.6c2.2,0.3,3.1,1.9,3.1,4.2
		c0,36.9,0,73.9,0.1,110.8c0,4.8,0.2,9.5,0.2,14.3c0,3.4-1.9,5.4-5.4,5.4c-25.6,0-51.2,0-76.7,0c-1.4,0-2.9,0-4,0.5
		c-1.3,0.6-2.7,1.6-3.5,2.8c-4.2,6.2-10.1,8.9-17.5,8.7c-5.7-0.2-10.3-2.7-14-6.9c-0.1-0.2-0.3-0.3-0.4-0.5
		c-1.7-3.7-4.7-4.8-8.6-4.7c-25.2,0.1-50.4,0.1-75.7,0c-1.1,0-2.4-0.2-3.4-0.7c-1.8-0.8-2.5-2.4-2.5-4.4c0-3.2,0.1-6.4,0.1-9.7
		c0-38.3,0-76.6,0-115c0-3.6,1.4-4.7,4.7-5.3c0.7-0.1,1.4-0.1,2.1-0.1C23.6,55.7,25.1,55.7,26.8,55.7z"/>
	<path d="M158.6,120c-0.5-5.1,0.6-9.8,4-13.7c2.1-2.4,4.6-4.4,6.9-6.7c1.5-1.5,3.1-2.9,4.2-4.6c2.6-3.8,2.6-8,0.5-12
		c-2.2-4.1-5.5-6.8-10.5-6.8c-6.6,0-11.1,2.9-12.9,8.6c-0.4,1.2-0.5,2.5-0.5,3.8c-0.1,3-1.9,4.8-4.9,4.8c-3,0-4.8-1.9-4.9-4.8
		c-0.4-10.8,8.6-20,18.1-22.1c12.1-2.7,24.2,5.7,26.4,17.9c1.6,9-1.7,16.1-8.2,22.1c-2.3,2.2-4.6,4.4-6.8,6.6
		c-1.2,1.2-1.7,2.7-1.7,4.4c0.1,2.2,0,4.5,0,6.8c0,2.8-2,4.7-4.9,4.7c-2.9,0-4.9-1.9-4.9-4.7C158.6,122.9,158.6,121.5,158.6,120z"/>
	<path d="M158.6,143.9c0-2.9,1.9-5,4.8-5c3.2,0,5.2,2,5.2,5.1c0,2.9-2.1,4.9-5,5C160.7,149,158.6,146.8,158.6,143.9z"/>
</g>
</svg>
