<?xml version="1.0" encoding="utf-8"?>
<!-- Generator: Adobe Illustrator 24.0.0, SVG Export Plug-In . SVG Version: 6.00 Build 0)  -->
<svg version="1.1" id="Layer_1" xmlns="http://www.w3.org/2000/svg" xmlns:xlink="http://www.w3.org/1999/xlink" x="0px" y="0px"
	 viewBox="0 0 240 240" style="enable-background:new 0 0 240 240;" xml:space="preserve">
<style type="text/css">
	.st0{fill:#FFFFFF;}
</style>
<path d="M181.16,37.45c6.05-6.43,12.16-12.79,18.1-19.31c2.54-2.79,5.69-5.23,9.05-3.41c2.45,1.33,4.4,4.67,5.29,7.52
	c1.37,4.37,1.64,9.08,2.44,14c4.06,0.54,8.15,1.04,12.22,1.66c3.1,0.47,6.34,1.56,6.37,5.12c0.02,2.47-1.04,5.55-2.71,7.34
	c-6.82,7.29-14.06,14.2-21.3,21.4c5.88,11.71,9.71,23.91,11.19,36.87c3.3,28.86-3.21,55.22-20.67,78.38
	c-20.04,26.57-47.08,40.59-80.45,41.14c-44.2,0.73-83.57-28.07-98.5-71.33C4.35,105.19,28.03,47.13,77.06,25.08
	c35.46-15.95,69.52-10.9,101.37,10.87c0.55,0.38,1.05,0.82,1.59,1.21C180.13,37.24,180.32,37.24,181.16,37.45z M171.65,85.04
	c22.01,35.62,10.22,72.95-16.39,91.98c-27.03,19.32-63.96,13.42-85.74-13.24c-21.33-26.11-18.45-66.42,6.77-90.54
	c21.38-20.45,60.82-24.84,88.53,2.97c5.38-2.46,3.61-7,3.24-11.14c-0.57-6.48-2.73-13.25,3.61-18.29
	c-30.71-25-80.19-24.89-112.13,4.15c-37.1,33.73-41.74,91.44-10.08,130.76c29.17,36.23,81.84,44.8,119.23,19.65
	c42.13-28.33,51.28-82.18,33.73-118.63c-7.49,0-14.35-0.21-21.18,0.1C178.25,82.94,175.31,84.15,171.65,85.04z M155.63,84.16
	c-19.4-20.07-52.82-20.19-72.15-0.46c-20.67,21.09-22.24,56.81,1.23,78.53c20.79,19.24,52.82,18.33,72.33-2.92
	c18.55-20.2,17.91-49.65,5.39-64.98c-5.87,5.42-11.62,10.95-17.63,16.17c-2.33,2.02-2.73,3.84-1.95,6.76
	c3.16,11.8-3.74,24.47-15.16,28.34c-11.55,3.91-23.98-1.32-28.89-12.17c-5.43-12.01-1.57-26.17,9.24-31.75
	c9.03-4.66,18.17-4.04,26.77,1.75C141.78,96.98,148.61,90.66,155.63,84.16z M180.79,70.81c5.25,0,11.48,1.92,14.46-0.37
	c7.72-5.95,14.01-13.76,22.25-22.25c-14.83,2.26-12.03-8.02-13.41-15.98c-6.84,7.18-12.54,14.15-19.27,19.94
	C178.45,57.61,178.87,63.59,180.79,70.81z M124.35,111.91c-5.31-2.67-10.13-1.87-13.48,2.14c-3.74,4.47-3.74,12.26,0.01,17.11
	c3.04,3.94,9.13,5.4,13.96,3.35c4.97-2.11,7.12-6.25,6.02-12.57c-3.37,2.88-7.04,6.94-10.95,2.17
	C115.12,118.28,121.91,115.66,124.35,111.91z"/>
<path class="st0" d="M171.65,85.04c3.66-0.89,6.6-2.09,9.59-2.23c6.83-0.31,13.69-0.1,21.18-0.1c17.56,36.45,8.4,90.3-33.73,118.63
	c-37.39,25.14-90.06,16.58-119.23-19.65C17.81,142.36,22.44,84.65,59.55,50.93c31.94-29.03,81.42-29.15,112.13-4.15
	c-6.35,5.04-4.19,11.81-3.61,18.29c0.37,4.14,2.14,8.68-3.24,11.14c-27.71-27.81-67.16-23.42-88.53-2.97
	c-25.22,24.12-28.11,64.43-6.77,90.54c21.78,26.66,58.71,32.56,85.74,13.24C181.87,157.99,193.66,120.65,171.65,85.04z"/>
<path class="st0" d="M155.63,84.16c-7.02,6.5-13.85,12.82-20.82,19.27c-8.59-5.79-17.74-6.41-26.77-1.75
	c-10.81,5.59-14.68,19.74-9.24,31.75c4.91,10.85,17.34,16.08,28.89,12.17c11.42-3.87,18.32-16.54,15.16-28.34
	c-0.78-2.92-0.38-4.74,1.95-6.76c6.01-5.22,11.76-10.75,17.63-16.17c12.53,15.32,13.16,44.78-5.39,64.98
	c-19.51,21.24-51.54,22.16-72.33,2.92c-23.47-21.72-21.9-57.44-1.23-78.53C102.82,63.97,136.23,64.09,155.63,84.16z"/>
<path class="st0" d="M180.79,70.81c-1.92-7.21-2.34-13.2,4.02-18.67c6.73-5.78,12.43-12.76,19.27-19.94
	c1.38,7.96-1.42,18.24,13.41,15.98c-8.24,8.49-14.53,16.3-22.25,22.25C192.27,72.73,186.04,70.81,180.79,70.81z"/>
<path class="st0" d="M124.35,111.91c-2.44,3.75-9.23,6.36-4.45,12.19c3.91,4.77,7.58,0.71,10.95-2.17
	c1.09,6.32-1.05,10.46-6.02,12.57c-4.82,2.05-10.91,0.59-13.96-3.35c-3.75-4.85-3.75-12.64-0.01-17.11
	C114.22,110.05,119.03,109.24,124.35,111.91z"/>
</svg>
