<?xml version="1.0" encoding="utf-8"?>
<!-- Generator: Adobe Illustrator 24.0.0, SVG Export Plug-In . SVG Version: 6.00 Build 0)  -->
<svg version="1.1" id="Layer_1" xmlns="http://www.w3.org/2000/svg" xmlns:xlink="http://www.w3.org/1999/xlink" x="0px" y="0px"
	 viewBox="0 0 240 240" style="enable-background:new 0 0 240 240;" xml:space="preserve">
<style type="text/css">
	.st0{fill:#FFFFFF;}
</style>
<path d="M184.4,99.51c13.35-2.07,25.15-1.62,33.29,10.21c6.37,9.25,6.3,23.75-0.27,33.41c-8.25,12.12-20.05,11.92-33.04,8.99
	c0,13.24,0.23,26.34-0.15,39.42c-0.1,3.62-1.36,7.58-3.22,10.7c-2.9,4.85-7.8,6.91-13.57,6.91c-44.82-0.03-89.64,0.06-134.47-0.06
	c-11.73-0.03-17.72-6.39-17.73-18.01c-0.01-16.83,0.3-33.67-0.16-50.48c-0.16-6.03,4.18-9.98,10.44-6.66
	c5.83,3.09,12.06,3.76,18.38,2.3c6.58-1.51,10.91-5.87,12.2-12.43c1.5-7.7-0.45-14.64-6.93-19.59c-5.96-4.55-12.57-4.94-19.26-1.76
	c-12.93,6.13-14.64,5.11-14.64-9.17c0-15.83-0.05-31.66,0-47.49c0.04-10.65,6.5-16.97,17.17-16.97c16.66,0,33.33-0.02,49.99-0.01
	c7.49,0,9.83,3.33,7.22,10.51c-2.1,5.77-4.55,11.34-3.5,17.81c1.62,10.04,10.19,16.38,20.18,14.53
	c9.99-1.85,16.93-11.92,14.52-21.43c-0.93-3.67-2.55-7.17-3.77-10.77c-2.4-7.09,0.07-10.62,7.38-10.63
	c14.16-0.01,28.33-0.03,42.49-0.01c10.68,0.01,17.4,6.68,17.44,17.4c0.05,15.83,0.01,31.66,0.01,47.49
	C184.4,95.52,184.4,97.32,184.4,99.51z M26.33,147.25c0,13.75-0.01,27.4,0,41.06c0,7.49,1.93,9.46,9.36,9.46
	c42.66,0.01,85.32,0.01,127.98,0c7.43,0,9.64-2.28,9.65-9.9c0.01-14-0.02-28,0.01-41.99c0.01-6.2,3.98-8.91,9.84-6.86
	c2.5,0.87,4.97,2.02,7.55,2.41c6.59,1,13.03,1.01,17.62-5.15c3.79-5.09,3.98-12.73,0.4-18.82c-4.65-7.91-14.22-10.07-24.7-4.87
	c-5.48,2.72-11.07,0.36-10.88-6.73c0.5-18.82,0.18-37.66,0.17-56.49c0-6.22-2.4-8.65-8.75-8.72c-7-0.08-14-0.04-21-0.04
	c-4.38,0-8.75,0-13.3,0c3.96,16.84,1.07,28.87-8.76,36.13c-9.71,7.17-20.47,9.19-31.35,3.34c-16.16-8.7-18.12-23.02-13.49-39.45
	c-14.86,0-29.18-0.06-43.5,0.03c-4.93,0.03-6.8,2.11-6.83,7.12c-0.05,9.66-0.02,19.33-0.02,29c0,4.58,0,9.16,0,14.08
	c14.28-4.39,26.49-2.53,35.46,9.37c7.9,10.48,8.34,25.16,1.1,35.56C53.89,148.72,41.05,150.79,26.33,147.25z"/>
<path class="st0" d="M26.33,147.25c14.72,3.54,27.56,1.47,36.56-11.46c7.24-10.39,6.8-25.07-1.1-35.56
	c-8.97-11.9-21.18-13.75-35.46-9.37c0-4.92,0-9.5,0-14.08c0-9.67-0.03-19.33,0.02-29c0.03-5.01,1.9-7.08,6.83-7.12
	c14.32-0.1,28.64-0.03,43.5-0.03c-4.62,16.43-2.67,30.76,13.49,39.45c10.88,5.85,21.64,3.83,31.35-3.34
	c9.82-7.26,12.72-19.29,8.76-36.13c4.55,0,8.92,0,13.3,0c7,0.01,14-0.04,21,0.04c6.34,0.07,8.74,2.5,8.75,8.72
	c0.01,18.83,0.33,37.67-0.17,56.49c-0.19,7.09,5.4,9.45,10.88,6.73c10.48-5.21,20.05-3.04,24.7,4.87c3.58,6.09,3.39,13.73-0.4,18.82
	c-4.58,6.16-11.03,6.14-17.62,5.15c-2.58-0.39-5.05-1.53-7.55-2.41c-5.86-2.05-9.82,0.66-9.84,6.86c-0.03,14,0,28-0.01,41.99
	c0,7.62-2.22,9.9-9.65,9.9c-42.66,0.01-85.32,0.01-127.98,0c-7.43,0-9.36-1.96-9.36-9.46C26.33,174.65,26.33,161,26.33,147.25z"/>
</svg>
