<?xml version="1.0" encoding="utf-8"?>
<!-- Generator: Adobe Illustrator 24.0.0, SVG Export Plug-In . SVG Version: 6.00 Build 0)  -->
<svg version="1.1" id="Layer_1" xmlns="http://www.w3.org/2000/svg" xmlns:xlink="http://www.w3.org/1999/xlink" x="0px" y="0px"
	 viewBox="0 0 240 240" style="enable-background:new 0 0 240 240;" xml:space="preserve">
<style type="text/css">
	.st0{fill:#FFFFFF;}
</style>
<path d="M196.64,58.66c1.55,3.44,3.02,6.73,4.49,10.01c7.42,16.46,14.6,33.04,22.39,49.33c3.18,6.64,3.37,13.05,1.52,19.77
	c-4.95,17.94-21.37,29.52-40.18,28.46c-19.63-1.11-34.35-14.13-37.78-32.86c-0.92-5.05-0.23-9.28,1.9-13.86
	c8.74-18.77,17.15-37.68,25.68-56.54c0.6-1.33,1.12-2.69,1.85-4.46c-17.16,0-33.86,0-50.89,0c0,45.62,0,91.2,0,137.51
	c8.82,0,17.74-0.01,26.67,0c13.16,0.01,21.83,7.92,23.15,21.1c0.53,5.24-0.92,6.89-6.32,6.89c-33,0.02-65.99,0.02-98.99-0.01
	c-5.33,0-7.46-2.58-6.8-7.91c1.48-11.84,10.82-20.06,22.79-20.07c9.12-0.01,18.24,0,27.53,0c0-46.08,0-91.66,0-137.54
	c-16.88,0-33.48,0-50.77,0c0.6,1.64,1.04,3.16,1.69,4.58c8.24,17.92,15.99,36.08,24.93,53.64c6.85,13.45,3.55,24.97-4.93,35.42
	c-10.71,13.19-25.1,17.77-41.6,13.4c-16.42-4.35-26.24-15.24-29.83-32c-1.05-4.91-0.31-9.02,1.66-13.42
	c8.75-19.49,17.33-39.05,25.97-58.59c0.33-0.74,0.56-1.52,1-2.72c-1.12-0.26-1.98-0.55-2.87-0.64c-3.59-0.35-5.65-2.51-5.46-5.88
	c0.19-3.35,2.44-5.28,6.06-5.26c6,0.04,12,0,18,0c18.49,0,36.97,0,56.44-1.14c-1.11-1.27-2.02-2.84-3.38-3.74
	c-5.58-3.72-8.14-10.68-6.21-17.55c1.62-5.77,7.95-10.41,14.35-10.51c6.7-0.11,13.37,4.55,15.32,10.7
	c1.97,6.21-0.27,13.49-5.13,17.1c-1.5,1.11-2.77,2.53-4.14,3.81c0.3,0.44,0.6,0.89,0.91,1.33c12.81,0,25.63,0,38.44,0
	c10.83,0,21.66,0.04,32.5-0.03c4.01-0.03,7.95,0,8.66,5.17C205.81,56.13,203.49,57.88,196.64,58.66z M52.33,63.51
	c-8.92,19.92-17.4,38.89-25.91,57.89c17.68,0,34.84,0,52.51,0C70.02,102.01,61.35,83.13,52.33,63.51z M186.55,63.93
	c-8.97,19.83-17.45,38.57-26.06,57.61c17.7,0,34.59,0,52.2,0C204.02,102.42,195.56,83.79,186.55,63.93z M24.63,133.26
	c3.89,13.82,15.75,22.9,28.99,22.51c13.39-0.39,25.12-9.9,27.49-22.51C62.36,133.26,43.64,133.26,24.63,133.26z M158.63,133.12
	c4.03,14.65,16.96,23.38,32.16,21.84c10.58-1.07,22.54-10.98,23.02-21.84C195.54,133.12,177.27,133.12,158.63,133.12z
	 M163.28,212.88c-2.05-4.25-5.29-5.71-9.05-5.72c-23.12-0.08-46.24-0.08-69.35,0.06c-3.66,0.02-6.91,1.47-8.56,5.66
	C105.35,212.88,133.93,212.88,163.28,212.88z M124.31,29.46c-2.45-1.67-3.86-3.39-5.04-3.24c-1.37,0.17-2.53,1.97-3.78,3.06
	c1.28,1.24,2.38,3.11,3.89,3.51C120.34,33.05,121.89,31.18,124.31,29.46z"/>
<path class="st0" d="M24.63,133.26c19.01,0,37.72,0,56.48,0c-2.38,12.61-14.1,22.12-27.49,22.51
	C40.39,156.15,28.53,147.07,24.63,133.26z"/>
<path class="st0" d="M158.63,133.12c18.64,0,36.9,0,55.18,0c-0.48,10.86-12.44,20.77-23.02,21.84
	C175.59,156.51,162.66,147.77,158.63,133.12z"/>
<path class="st0" d="M163.28,212.88c-29.34,0-57.92,0-86.96,0c1.65-4.19,4.9-5.64,8.56-5.66c23.12-0.14,46.24-0.14,69.35-0.06
	C157.98,207.17,161.22,208.64,163.28,212.88z"/>
<path class="st0" d="M124.31,29.46c-2.42,1.72-3.97,3.59-4.94,3.33c-1.5-0.41-2.61-2.27-3.89-3.51c1.25-1.09,2.42-2.89,3.78-3.06
	C120.45,26.08,121.86,27.79,124.31,29.46z"/>
</svg>
