<?xml version="1.0" encoding="utf-8"?>
<!-- Generator: Adobe Illustrator 24.0.0, SVG Export Plug-In . SVG Version: 6.00 Build 0)  -->
<svg version="1.1" id="Layer_1" xmlns="http://www.w3.org/2000/svg" xmlns:xlink="http://www.w3.org/1999/xlink" x="0px" y="0px"
	 viewBox="0 0 240 240" style="enable-background:new 0 0 240 240;" xml:space="preserve">
<style type="text/css">
	.st0{fill:#FFFFFF;}
	.st1{fill:#4D4D4D;}
</style>
<path d="M120.93,18.85c53.6,0.59,96.62,44.8,96.53,98.34c-0.09,51.86-41.62,101.95-101,99.25c-51.71-2.35-95-46.84-92.29-104.37
	C26.65,59.35,68.43,19.54,120.93,18.85z M204.83,123.19c-3.01,0-5.67,0.12-8.32-0.03c-3.18-0.18-5.41-1.64-5.54-5.15
	c-0.14-3.6,1.62-5.73,5.22-5.97c2.78-0.18,5.58-0.04,8.37-0.04c0.4-41.21-37.38-79.45-78.47-80.18c0,2.46-0.08,4.92,0.02,7.37
	c0.16,3.89-1.45,6.84-5.36,7.07c-4.19,0.24-6.14-2.81-6.41-6.75c-0.18-2.6-0.03-5.22-0.03-7.85c-39.71,1.46-81.46,45.25-76.77,80.4
	c2.39,0,4.85-0.06,7.31,0.01c3.67,0.1,6.2,1.82,6.17,5.67c-0.03,3.93-2.76,5.4-6.36,5.49c-2.61,0.06-5.22,0.01-7.85,0.01
	c1.83,44.25,38.86,78.71,77.35,80.4c0-2.66-0.25-5.34,0.06-7.95c0.47-3.99,2.81-6.5,7-6.19c3.91,0.29,5.11,3.18,5.13,6.7
	c0.02,2.6,0,5.21,0,7.83C168.55,202.12,204.45,162.73,204.83,123.19z"/>
<path class="st0" d="M204.83,123.19c-0.38,39.54-36.28,78.92-78.47,80.86c0-2.62,0.01-5.22,0-7.83c-0.02-3.53-1.23-6.41-5.13-6.7
	c-4.19-0.32-6.53,2.2-7,6.19c-0.31,2.61-0.06,5.29-0.06,7.95c-38.49-1.68-75.53-36.15-77.35-80.4c2.63,0,5.24,0.05,7.85-0.01
	c3.59-0.09,6.32-1.55,6.36-5.49c0.03-3.86-2.5-5.57-6.17-5.67c-2.46-0.07-4.92-0.01-7.31-0.01c-4.69-35.15,37.06-78.94,76.77-80.4
	c0,2.63-0.15,5.25,0.03,7.85c0.28,3.94,2.23,6.99,6.41,6.75c3.91-0.22,5.52-3.18,5.36-7.07c-0.1-2.45-0.02-4.91-0.02-7.37
	c41.09,0.73,78.87,38.96,78.47,80.18c-2.78,0-5.59-0.15-8.37,0.04c-3.6,0.24-5.36,2.37-5.22,5.97c0.14,3.51,2.36,4.97,5.54,5.15
	C199.16,123.31,201.82,123.19,204.83,123.19z M168.42,74.17c-0.18-5.74-4.82-7.88-9.41-5.17c-16.84,9.95-33.71,19.86-50.43,30.01
	c-2.24,1.36-4.23,3.72-5.45,6.08c-9.13,17.63-18.01,35.39-27.06,53.06c-1.48,2.88-2.64,6.25,0.22,8.05
	c1.97,1.24,5.95,1.19,8.06-0.01c16.74-9.46,33.3-19.26,49.79-29.18c2.29-1.37,4.44-3.62,5.67-5.98
	c9.06-17.32,17.88-34.76,26.73-52.19C167.43,77.11,168.01,75.21,168.42,74.17z"/>
<path d="M168.42,74.17c-0.41,1.04-0.99,2.94-1.87,4.68c-8.85,17.43-17.67,34.87-26.73,52.19c-1.23,2.36-3.39,4.61-5.67,5.98
	c-16.49,9.91-33.04,19.71-49.79,29.18c-2.11,1.19-6.09,1.25-8.06,0.01c-2.85-1.8-1.69-5.16-0.22-8.05
	c9.05-17.67,17.93-35.43,27.06-53.06c1.22-2.36,3.21-4.72,5.45-6.08C125.3,88.86,142.17,78.95,159.01,69
	C163.6,66.29,168.24,68.43,168.42,74.17z M131.51,121.32c5.52-10.83,10.7-20.98,16.33-32.03c-10.47,6.24-19.91,11.87-29.55,17.61
	C122.74,111.76,126.87,116.26,131.51,121.32z M95.69,145.58c9.72-5.68,18.59-10.87,27.71-16.2c-4.78-4.29-9.12-8.19-13.26-11.92
	C105.71,126.08,100.97,135.3,95.69,145.58z"/>
<path class="st1" d="M131.51,121.32c-4.64-5.06-8.77-9.57-13.21-14.42c9.63-5.74,19.08-11.37,29.55-17.61
	C142.2,100.35,137.03,110.49,131.51,121.32z"/>
<path class="st0" d="M95.69,145.58c5.28-10.28,10.02-19.5,14.44-28.12c4.15,3.73,8.49,7.63,13.26,11.92
	C114.28,134.71,105.41,139.89,95.69,145.58z"/>
</svg>
