<?xml version="1.0" encoding="utf-8"?>
<!-- Generator: Adobe Illustrator 24.0.0, SVG Export Plug-In . SVG Version: 6.00 Build 0)  -->
<svg version="1.1" id="Layer_1" xmlns="http://www.w3.org/2000/svg" xmlns:xlink="http://www.w3.org/1999/xlink" x="0px" y="0px"
	 viewBox="0 0 240 240" style="enable-background:new 0 0 240 240;" xml:space="preserve">
<style type="text/css">
	.st0{fill:#BEBEBE;}
</style>
<path d="M116.2,101.2c0-5.29,0-10.05,0-15.38c-2.11,0-4.07,0-6.02,0c-16.5,0.04-33,0.09-49.5,0.11c-5.59,0.01-7.83-2.22-7.84-7.84
	c-0.04-12.67-0.02-25.33-0.02-38c0-8.3,1.65-9.98,9.81-9.98c17.33-0.02,34.66-0.03,52-0.05c0.32,0,0.65-0.13,1.77-0.39
	c0-4.71,0.09-9.64-0.03-14.55c-0.1-4.18,1.18-7.35,5.74-7.86c3.49-0.39,5.69,2.75,5.72,7.71c0.03,4.81,0.01,9.63,0.01,14.9
	c1.83,0.09,3.43,0.23,5.03,0.23c12,0.02,24-0.13,36,0.12c2.43,0.05,5.24,1.05,7.17,2.53c8.05,6.19,15.87,12.67,23.68,19.15
	c3.84,3.18,3.98,6.96,0.24,10.15c-8.61,7.35-17.28,14.64-26.16,21.66c-1.76,1.39-4.54,2.02-6.87,2.06
	c-12.81,0.19-25.63,0.09-38.77,0.09c0,5.12,0,10.01,0,15.35c7.28,0,14.39,0,21.51,0c10.17,0.01,20.33-0.06,30.5,0.07
	c6.05,0.07,8.58,2.67,8.59,8.5c0.01,13,0,26-0.06,39c-0.03,6.46-1.91,8.29-8.3,8.3c-17.31,0.01-34.62,0-52.24,0
	c0,20.69,0,41.1,0,62.22c5.38,0,10.8-0.02,16.21,0.01c1.83,0.01,3.71-0.14,5.47,0.23c3.04,0.64,5.18,2.42,4.96,5.86
	c-0.22,3.53-2.32,5.63-5.76,5.65c-17.67,0.11-35.33,0.09-53,0.02c-3.71-0.02-6.08-2.26-6.05-5.9c0.03-3.7,2.61-5.71,6.23-5.79
	c6.48-0.15,12.97-0.04,19.82-0.04c0-20.83,0-41.37,0-62.27c-13.93,0-27.74-0.12-41.54,0.07c-4.63,0.06-8.25-1.35-11.74-4.4
	c-6.63-5.81-13.59-11.25-20.44-16.8c-7.01-5.68-7.04-8.84-0.1-14.49c6.97-5.68,13.75-11.6,20.92-17c2.32-1.75,5.6-3.02,8.47-3.08
	C86.27,101.03,100.93,101.2,116.2,101.2z M51.74,128.58c5.72,4.7,10.96,9.34,16.58,13.47c2.2,1.61,5.24,2.9,7.9,2.92
	c31.65,0.2,63.31,0.13,94.96,0.13c1.77,0,3.54,0,5.31,0c0-10.99,0-21.38,0-31.75c-0.84-0.11-1.32-0.23-1.81-0.23
	c-33.82-0.02-67.64-0.04-101.46,0.01c-1.37,0-3.03,0.37-4.07,1.19C63.42,118.84,57.83,123.56,51.74,128.58z M64.45,73.69
	c0.76,0.2,1.08,0.35,1.4,0.35c33.16,0.02,66.32,0.06,99.49-0.02c1.5,0,3.27-0.72,4.45-1.68c6.02-4.87,11.89-9.94,18.06-15.13
	c-4.79-3.97-9.52-7.64-13.93-11.66c-2.91-2.65-6-3.59-9.9-3.58c-31.66,0.12-63.32,0.05-94.99,0.06c-1.45,0-2.9,0.16-4.58,0.26
	C64.45,52.85,64.45,63.12,64.45,73.69z"/>
<path class="st0" d="M51.74,128.58c6.1-5.02,11.68-9.74,17.42-14.26c1.04-0.82,2.69-1.19,4.07-1.19
	c33.82-0.05,67.64-0.03,101.46-0.01c0.48,0,0.97,0.12,1.81,0.23c0,10.38,0,20.76,0,31.75c-1.77,0-3.54,0-5.31,0
	c-31.65,0-63.31,0.07-94.96-0.13c-2.67-0.02-5.71-1.31-7.9-2.92C62.7,137.92,57.46,133.28,51.74,128.58z"/>
</svg>
